# Blender 3.4.1
# www.blender.org
mtllib shard.mtl
o soul_shard_m_crystal_Inst1_0
v -0.646894 2.350961 -0.493643
v -0.646894 -1.318904 0.646895
v 0.275243 2.350961 0.307282
v -0.646894 -1.318904 0.646895
v 0.303850 1.808309 0.646894
v 0.275243 2.350961 0.307282
v 0.646894 1.402528 -0.646895
v -0.030953 2.350961 -0.646895
v 0.937238 1.947562 -0.318577
v 0.937238 1.947562 -0.318577
v -0.030953 2.350961 -0.646895
v 0.743410 2.350961 -0.312745
v -0.646894 0.293024 -0.646894
v -0.217146 -0.996173 -0.646894
v -0.504921 -1.857807 -0.091439
v -0.504921 -1.857807 -0.091439
v -0.217146 -0.996173 -0.646894
v -0.225962 -1.924881 -0.486269
v -0.720696 -1.797485 0.065509
v 0.015269 -3.242048 0.177520
v -0.646894 -1.318904 0.646895
v -0.646894 -1.318904 0.646895
v 0.015269 -3.242048 0.177520
v 0.818378 0.885854 0.646894
v 0.303850 1.808309 0.646894
v -0.646894 -1.318904 0.646895
v 0.818378 0.885854 0.646894
v 0.275243 2.350961 0.307282
v 0.743410 2.350961 -0.312745
v 0.047207 3.086417 -0.279170
v 0.743410 2.350961 -0.312745
v -0.030953 2.350961 -0.646895
v 0.047207 3.086417 -0.279170
v -0.646894 2.350961 -0.493643
v -0.030953 2.350961 -0.646895
v -0.646894 0.293024 -0.646894
v 0.151179 -2.013737 -0.419177
v 0.015269 -3.242048 0.177520
v -0.225962 -1.924881 -0.486269
v -0.225962 -1.924881 -0.486269
v 0.015269 -3.242048 0.177520
v -0.504921 -1.857807 -0.091439
v 0.015269 -3.242048 0.177520
v -0.720696 -1.797485 0.065509
v -0.504921 -1.857807 -0.091439
v 0.937238 1.947562 -0.318577
v 0.818378 0.885854 0.646894
v 0.646894 1.402528 -0.646895
v 0.646894 1.402528 -0.646895
v 0.818378 0.885854 0.646894
v 0.646894 -0.212230 -0.646894
v 0.818378 0.885854 0.646894
v 0.015269 -3.242048 0.177520
v 0.646894 -0.212230 -0.646894
v 0.646894 -0.212230 -0.646894
v 0.015269 -3.242048 0.177520
v 0.151179 -2.013737 -0.419177
v 0.818378 0.885854 0.646894
v 0.937238 1.947562 -0.318577
v 0.303850 1.808309 0.646894
v 0.303850 1.808309 0.646894
v 0.937238 1.947562 -0.318577
v 0.275243 2.350961 0.307282
v 0.937238 1.947562 -0.318577
v 0.743410 2.350961 -0.312745
v 0.275243 2.350961 0.307282
v -0.217146 -0.996173 -0.646894
v 0.151179 -2.013737 -0.419177
v -0.225962 -1.924881 -0.486269
v 0.646894 -0.212230 -0.646894
v 0.151179 -2.013737 -0.419177
v -0.217146 -0.996173 -0.646894
v -0.646894 2.350961 -0.493643
v -0.646894 0.293024 -0.646894
v -0.646894 -1.318904 0.646895
v -0.720696 -1.797485 0.065509
v -0.646894 -1.318904 0.646895
v -0.646894 0.293024 -0.646894
v -0.504921 -1.857807 -0.091439
v -0.720696 -1.797485 0.065509
v -0.646894 0.293024 -0.646894
v 0.047207 3.086417 -0.279170
v -0.030953 2.350961 -0.646895
v -0.646894 2.350961 -0.493643
v 0.275243 2.350961 0.307282
v 0.047207 3.086417 -0.279170
v -0.646894 2.350961 -0.493643
v -0.217146 -0.996173 -0.646894
v -0.646894 0.293024 -0.646894
v 0.646894 -0.212230 -0.646894
v 0.646894 1.402528 -0.646895
v -0.646894 0.293024 -0.646894
v -0.030953 2.350961 -0.646895
v 0.646894 1.402528 -0.646895
vn -0.6394 0.2289 0.7340
vn -0.8408 0.2514 0.4794
vn -0.8408 0.2515 0.4793
vn 0.4173 0.2992 -0.8581
vn 0.3871 0.1975 -0.9006
vn -0.6766 -0.2281 -0.7002
vn -0.8191 -0.0866 -0.5671
vn -0.8188 -0.3858 0.4251
vn -0.8188 -0.3858 0.4252
vn 0.2358 -0.1572 0.9590
vn -0.0000 -0.0000 1.0000
vn 0.6444 0.5894 0.4872
vn 0.6443 0.5894 0.4872
vn 0.3616 0.3852 -0.8490
vn -0.2438 0.0707 -0.9672
vn -0.2438 0.0708 -0.9672
vn 0.0550 -0.4402 -0.8962
vn -0.7815 -0.3868 -0.4894
vn -0.6126 -0.3690 -0.6990
vn 0.9088 -0.3318 -0.2529
vn 0.9910 -0.0000 -0.1337
vn 0.9798 -0.1975 0.0316
vn 0.9798 -0.1975 0.0317
vn 0.8697 -0.2899 -0.3995
vn 0.7326 0.4096 0.5436
vn 0.7489 0.3785 0.5440
vn 0.7456 0.3532 0.5651
vn 0.1338 -0.1730 -0.9758
vn 0.1493 -0.1650 -0.9749
vn -1.0000 -0.0000 -0.0000
vn -0.9949 0.0632 0.0790
vn -0.6129 -0.2357 -0.7542
vn -0.2121 0.4558 -0.8644
vn -0.6077 0.3709 0.7023
vn -0.0000 -0.0000 -1.0000
vt 0.394775 0.000031
vt 0.637207 0.780273
vt 0.564941 0.000031
vt 0.637207 0.780273
vt 0.637207 0.115356
vt 0.564941 0.000031
vt 0.637207 0.201660
vt 0.637207 0.000031
vt 0.567383 0.085754
vt 0.567383 0.085754
vt 0.637207 0.000031
vt 0.566406 0.000031
vt 0.362305 0.437500
vt 0.362305 0.711426
vt 0.480469 0.985352
vt 0.480469 0.985352
vt 0.362305 0.711426
vt 0.434082 1.000000
vt 0.346680 0.984863
vt 0.502930 0.980469
vt 0.362305 0.780273
vt 0.362305 0.780273
vt 0.502930 0.980469
vt 0.637207 0.311523
vt 0.502441 0.115356
vt 0.362305 0.780273
vt 0.637207 0.311523
vt 0.478027 0.564941
vt 0.577637 0.433350
vt 0.469727 0.413818
vt 0.577637 0.433350
vt 0.493408 0.362305
vt 0.469727 0.413818
vt 0.362305 0.394775
vt 0.493408 1.000000
vt 0.362305 0.437500
vt 0.531738 0.588867
vt 0.502930 0.407227
vt 0.441650 0.565430
vt 0.441650 0.565430
vt 0.502930 0.407227
vt 0.392578 0.519043
vt 0.502930 0.407227
vt 0.346680 0.414795
vt 0.392578 0.519043
vt 0.567383 0.085754
vt 0.362305 0.311523
vt 0.637207 0.201660
vt 0.637207 0.201660
vt 0.362305 0.311523
vt 0.637207 0.544922
vt 0.362305 0.311523
vt 0.407227 0.980469
vt 0.637207 0.544922
vt 0.637207 0.544922
vt 0.407227 0.980469
vt 0.588867 0.996094
vt 0.362305 0.311523
vt 0.567383 0.085754
vt 0.362305 0.115356
vt 0.362305 0.115356
vt 0.567383 0.085754
vt 0.434570 0.000031
vt 0.567383 0.085754
vt 0.566406 0.000031
vt 0.434570 0.000031
vt 0.453613 0.288086
vt 0.531738 0.003454
vt 0.441650 0.000031
vt 0.637207 0.454834
vt 0.531738 0.003454
vt 0.453613 0.288086
vt 0.394775 0.000031
vt 0.362305 0.437500
vt 0.637207 0.780273
vt 0.584961 0.984863
vt 0.637207 0.780273
vt 0.362305 0.437500
vt 0.480469 0.985352
vt 0.584961 0.984863
vt 0.362305 0.437500
vt 0.469727 0.413818
vt 0.493408 0.362305
vt 0.362305 0.394775
vt 0.478027 0.564941
vt 0.469727 0.413818
vt 0.362305 0.394775
vt 0.453613 0.288086
vt 0.362305 0.562012
vt 0.637207 0.454834
vt 0.637207 0.797852
vt 0.362305 0.562012
vt 0.493408 1.000000
vt 0.637207 0.797852
s 1
f 1/1/1 2/2/1 3/3/1
f 4/4/2 5/5/2 6/6/3
f 7/7/4 8/8/4 9/9/4
f 10/10/5 11/11/5 12/12/5
f 13/13/6 14/14/6 15/15/6
f 16/16/7 17/17/7 18/18/7
f 19/19/8 20/20/9 21/21/9
f 22/22/10 23/23/10 24/24/10
s 0
f 25/25/11 26/26/11 27/27/11
s 1
f 28/28/12 29/29/12 30/30/13
f 31/31/14 32/32/14 33/33/14
f 34/34/15 35/35/16 36/36/16
f 37/37/17 38/38/17 39/39/17
f 40/40/18 41/41/18 42/42/18
f 43/43/19 44/44/19 45/45/19
s 0
f 46/46/20 47/47/20 48/48/20
s 1
f 49/49/21 50/50/21 51/51/21
f 52/52/22 53/53/22 54/54/23
f 55/55/24 56/56/24 57/57/24
f 58/58/25 59/59/25 60/60/25
f 61/61/26 62/62/26 63/63/26
f 64/64/27 65/65/27 66/66/27
f 67/67/28 68/68/28 69/69/28
f 70/70/29 71/71/29 72/72/29
s 0
f 73/73/30 74/74/30 75/75/30
s 1
f 76/76/31 77/77/31 78/78/31
f 79/79/32 80/80/32 81/81/32
f 82/82/33 83/83/33 84/84/33
f 85/85/34 86/86/34 87/87/34
s 0
f 88/88/35 89/89/35 90/90/35
f 90/90/35 89/89/35 91/91/35
f 92/92/35 93/93/35 94/94/35
